:SAMPLES-PER-SECOND 30
:FULLY-SPECIFIED
:DEGREES
153
root  -63.247 38.2613 -4.85245 -0.187683 -18.1657 -3.28809
RightUpLeg  -16.9144 2.58699 -9.80629
RightLeg  28.5818 15.3637 8.67322
RightFoot  -12.9433 0.0360165 8.86721
RightToes  -2.32831e-009 0 -3.6325e-017
Spine  35.3671 0.206101 9.35577
Spine1  9.10308 5.00079 -7.63895
HEad  -47.5648 -39.4875 22.5222
LeftShoulder1  0.551853 1.94237 -29.2262
LeftArm  6.2204 -4.72571 -46.1023
LeftForeArm  23.2641 -21.4842 -4.33556
LeftHand  -0.0308548 8.00869 0.416958
RightShoulder  -0.154136 -3.99036 23.6048
RightArm  -12.942 26.2386 31.9394
RightForeArm  39.6356 68.895 25.5835
RightHand  -0.149402 10.0143 -1.52763
LeftUpLeg  -31.6233 -4.17803 7.9245
LeftLeg  46.013 -20.7051 -21.1098
LeftFoot  -8.59886 0.49684 -18.2795
LeftToes  8.91272e-011 -1.70619e-011 7.36378e-012
154
root  -62.7698 38.1612 -4.43184 -1.46014 -19.9981 -3.47614
RightUpLeg  -15.5352 4.36549 -10.3984
RightLeg  28.5167 15.7115 8.84355
RightFoot  -13.1826 0.0596524 9.28879
RightToes  -2.32831e-009 0 -3.6325e-017
Spine  33.6447 0.243947 8.52526
Spine1  8.74807 4.59623 -7.05124
HEad  -45.7204 -39.7124 21.3644
LeftShoulder1  0.437842 2.25618 -28.9631
LeftArm  1.5993 -6.8754 -46.329
LeftForeArm  21.875 -27.0305 -4.52651
LeftHand  0.00206192 8.36076 1.83415
RightShoulder  0.00687489 -3.45547 22.7972
RightArm  -5.5573 24.5963 39.1176
RightForeArm  42.9722 69.85 26.678
RightHand  -0.0978562 9.74239 -1.15272
LeftUpLeg  -29.8991 -5.71415 10.3106
LeftLeg  47.6423 -16.7775 -18.4109
LeftFoot  -10.3571 0.173188 -13.4627
LeftToes  8.91272e-011 -1.70619e-011 7.36378e-012
155
root  -62.2324 38.0816 -4.00758 -2.74481 -22.1734 -3.38855
RightUpLeg  -14.2731 6.04004 -11.3668
RightLeg  28.1688 16.6285 9.22529
RightFoot  -13.2245 0.0761454 10.0525
RightToes  -2.32831e-009 0 -3.6325e-017
Spine  32.3173 0.453828 7.27502
Spine1  8.1711 4.38475 -6.80905
HEad  -43.9187 -39.777 20.5544
LeftShoulder1  0.422403 2.27231 -28.2808
LeftArm  -3.34721 -8.9408 -46.1152
LeftForeArm  24.4975 -32.5173 -5.7838
LeftHand  -0.0165061 5.94988 2.55044
RightShoulder  0.01141 -3.4337 23.0504
RightArm  1.15493 21.961 45.2646
RightForeArm  46.597 70.8139 27.8682
RightHand  -0.0213174 9.74236 -0.568426
LeftUpLeg  -27.1048 -7.58367 11.9828
LeftLeg  47.6429 -14.0612 -15.5819
LeftFoot  -11.4035 0.0638791 -10.0374
LeftToes  8.91272e-011 -1.70619e-011 7.36378e-012
156
root  -61.615 37.9325 -3.54541 -3.77637 -24.2548 -3.54687
RightUpLeg  -13.2629 7.88882 -12.2141
RightLeg  27.8606 17.3134 9.4791
RightFoot  -13.5356 0.122734 11.2051
RightToes  -2.32831e-009 0 -3.6325e-017
Spine  30.6546 0.418746 6.74076
Spine1  8.05319 4.30462 -7.21416
HEad  -43.0154 -40.3567 21.0818
LeftShoulder1  0.48217 2.02837 -26.4531
LeftArm  -6.78933 -10.6146 -46.3479
LeftForeArm  28.8025 -38.6549 -7.1623
LeftHand  0.00410586 6.91738 2.79502
RightShoulder  -0.118251 -3.86208 24.6307
RightArm  6.71252 18.3263 49.5869
RightForeArm  49.6682 71.9662 29.8064
RightHand  -0.0406305 9.58931 -0.718634
LeftUpLeg  -23.8238 -10.1413 13.2313
LeftLeg  46.9549 -13.0589 -14.1672
LeftFoot  -12.5377 -0.00535687 -7.37937
LeftToes  8.91272e-011 -1.70619e-011 7.36378e-012
157
root  -60.8525 37.7859 -3.0473 -4.44611 -25.8672 -3.63318
RightUpLeg  -12.3925 9.54151 -13.4175
RightLeg  26.9415 17.7794 9.37268
RightFoot  -13.5446 0.144986 12.2616
RightToes  -2.32831e-009 0 -3.6325e-017
Spine  28.6114 0.562888 4.84538
Spine1  8.20931 3.43235 -5.32984
HEad  -41.7489 -40.303 20.541
LeftShoulder1  0.346379 2.4255 -25.9317
LeftArm  -9.30416 -12.1856 -45.9064
LeftForeArm  32.9617 -44.275 -8.64171
LeftHand  0.0244812 7.30269 3.50068
RightShoulder  -0.102484 -3.80323 24.9613
RightArm  10.4945 13.1706 52.4855
RightForeArm  54.4264 73.8696 33.9008
RightHand  -0.00230287 9.1147 -0.412509
LeftUpLeg  -20.6727 -13.8265 13.328
LeftLeg  45.7335 -12.9907 -13.505
LeftFoot  -13.8596 -0.0508454 -6.00246
LeftToes  8.91272e-011 -1.70619e-011 7.36378e-012
158
root  -59.9537 37.6076 -2.53355 -4.6261 -27.3916 -3.73138
RightUpLeg  -11.891 11.2312 -14.8947
RightLeg  25.328 18.0505 8.89072
RightFoot  -13.4407 0.169892 14.226
RightToes  -2.32831e-009 0 -3.6325e-017
Spine  26.5665 0.346882 3.72882
Spine1  8.1137 2.6875 -4.72231
HEad  -40.4178 -39.6326 19.4865
LeftShoulder1  0.320526 2.47632 -24.9599
LeftArm  -11.602 -13.0891 -45.4703
LeftForeArm  35.0083 -48.8925 -10.223
LeftHand  -0.0361415 5.08267 3.72565
RightShoulder  -0.213882 -4.13711 26.2062
RightArm  12.9028 7.85567 52.4498
RightForeArm  61.2812 75.918 39.7864
RightHand  0.198756 9.3793 1.15539
LeftUpLeg  -18.1621 -16.539 12.3122
LeftLeg  44.7758 -13.5308 -13.6141
LeftFoot  -18.2082 -0.16814 -4.79936
LeftToes  8.91272e-011 -1.70619e-011 7.36378e-012
159
root  -58.9704 37.5297 -2.05598 -4.79425 -29.6432 -3.45093
RightUpLeg  -11.4325 13.7641 -16.8146
RightLeg  22.1906 18.1755 7.83275
RightFoot  -12.3293 0.0561565 16.2562
RightToes  -2.32831e-009 0 -3.6325e-017
Spine  24.69 0.693587 1.47133
Spine1  8.27683 2.13924 -3.62154
HEad  -39.5424 -37.9178 18.2607
LeftShoulder1  0.219514 2.80733 -25.2895
LeftArm  -13.188 -14.1875 -44.0554
LeftForeArm  34.0785 -52.9702 -12.1151
LeftHand  -0.0537679 4.59517 5.01645
RightShoulder  -0.296584 -4.37533 26.7557
RightArm  14.5098 2.75366 51.358
RightForeArm  68.7954 77.7121 47.5412
RightHand  0.264912 9.46352 1.65572
LeftUpLeg  -16.3017 -15.2672 9.79796
LeftLeg  43.1375 -12.205 -11.6079
LeftFoot  -20.9967 -0.00326304 -1.39695
LeftToes  8.91272e-011 -1.70619e-011 7.36378e-012
160
root  -57.8859 37.527 -1.65648 -4.75952 -31.7598 -2.86469
RightUpLeg  -11.2311 14.2584 -18.7782
RightLeg  18.2899 18.5085 5.98039
RightFoot  -9.73746 -0.334175 18.4194
RightToes  -2.32831e-009 0 -3.6325e-017
Spine  23.521 0.935187 -1.26805
Spine1  7.59841 1.36637 -2.30426
HEad  -39.5257 -35.5324 17.3975
LeftShoulder1  0.0734284 3.27247 -25.4752
LeftArm  -14.5889 -14.638 -42.7174
LeftForeArm  33.5795 -56.2035 -13.9198
LeftHand  -0.0267762 5.2934 5.27213
RightShoulder  -0.38253 -4.60488 27.7273
RightArm  15.9684 -0.92 48.6908
RightForeArm  76.049 78.9397 55.561
RightHand  0.112682 8.78187 0.534062
LeftUpLeg  -16.5082 -13.1115 6.97539
LeftLeg  43.1179 -10.0302 -9.5264
LeftFoot  -20.0546 0.24942 1.67389
LeftToes  8.91272e-011 -1.70619e-011 7.36378e-012
161
root  -56.6936 37.543 -1.2808 -3.85193 -33.729 -2.87445
RightUpLeg  -11.4779 5.85107 -18.6806
RightLeg  14.8698 19.8533 3.11924
RightFoot  -5.13673 -1.12263 20.0767
RightToes  -2.32831e-009 0 -3.6325e-017
Spine  21.7912 1.03212 -2.68549
Spine1  7.53453 0.779659 -0.534453
HEad  -39.8092 -33.1217 16.5579
LeftShoulder1  0.00365904 3.49223 -25.474
LeftArm  -15.6305 -14.3822 -41.6999
LeftForeArm  32.5111 -58.5109 -15.4834
LeftHand  -0.0101739 5.65452 5.9516
RightShoulder  -0.452182 -4.78531 28.3221
RightArm  16.3358 -3.63111 46.0144
RightForeArm  81.5162 79.5403 60.6763
RightHand  0.117471 8.43425 0.597555
LeftUpLeg  -17.8605 -11.923 5.28936
LeftLeg  43.3304 -9.21078 -8.80557
LeftFoot  -19.086 0.291775 2.63058
LeftToes  8.91272e-011 -1.70619e-011 7.36378e-012
162
root  -55.5407 37.7519 -0.952182 -3.01935 -36.3156 -2.9472
RightUpLeg  -11.7721 -5.4197 -17.5564
RightLeg  12.588 14.8315 1.0192
RightFoot  -0.190749 -1.85653 18.8381
RightToes  -2.32831e-009 0 -3.6325e-017
Spine  19.7873 1.30181 -2.82187
Spine1  8.1201 1.10062 -0.581618
HEad  -39.8014 -31.7094 15.6614
LeftShoulder1  0.044137 3.36443 -25.4181
LeftArm  -15.8667 -13.5971 -40.7901
LeftForeArm  30.5359 -58.819 -15.9121
LeftHand  -0.0588533 4.60507 5.72671
RightShoulder  -0.601933 -5.18081 29.1471
RightArm  15.5791 -5.87299 44.0641
RightForeArm  84.061 79.7311 62.0706
RightHand  0.110466 8.17846 0.565859
LeftUpLeg  -18.2949 -8.41281 3.83427
LeftLeg  41.9838 -9.4378 -8.6004
LeftFoot  -17.3848 0.319102 4.0769
LeftToes  8.91272e-011 -1.70619e-011 7.36378e-012
163
root  -54.4338 38.0496 -0.698903 -3.15515 -39.9042 -2.44208
RightUpLeg  -12.2866 -9.5484 -17.1411
RightLeg  14.6285 6.57295 1.05611
RightFoot  -0.542266 -1.55145 16.1832
RightToes  -2.32831e-009 0 -3.6325e-017
Spine  18.6778 1.73184 -2.79554
Spine1  8.09498 1.86082 -1.61201
HEad  -38.9157 -30.3587 14.2187
LeftShoulder1  -0.0973113 3.80608 -25.9046
LeftArm  -15.3039 -11.6024 -39.2863
LeftForeArm  26.5579 -57.5775 -15.4546
LeftHand  -0.0343291 5.1064 5.23021
RightShoulder  -0.631983 -5.24883 29.4771
RightArm  14.7611 -7.53161 44.0925
RightForeArm  82.5167 79.4739 58.541
RightHand  0.183353 8.06634 1.19474
LeftUpLeg  -17.5713 -4.0612 2.05395
LeftLeg  39.509 -9.86565 -8.25003
LeftFoot  -15.1528 0.262835 5.13971
LeftToes  8.91272e-011 -1.70619e-011 7.36378e-012
164
root  -53.3992 38.3793 -0.457248 -4.13177 -43.9687 -1.47968
RightUpLeg  -12.6245 -9.35729 -16.3433
RightLeg  19.8978 2.98734 1.09554
RightFoot  -2.28366 -1.02764 12.7698
RightToes  -2.32831e-009 0 -3.6325e-017
Spine  17.8072 2.11469 -2.50184
Spine1  8.11059 2.81613 -3.52167
HEad  -36.8277 -28.7455 12.3112
LeftShoulder1  -0.120704 3.86711 -27.1027
LeftArm  -14.8142 -8.24378 -37.0944
LeftForeArm  22.4013 -55.2471 -14.3894
LeftHand  -0.0516245 4.56869 4.25584
RightShoulder  -0.633961 -5.253 29.5033
RightArm  14.7943 -7.78567 44.9335
RightForeArm  81.3846 79.2635 56.1661
RightHand  0.0963889 7.8564 0.45916
LeftUpLeg  -15.9614 -0.588238 0.0680038
LeftLeg  36.1347 -9.46299 -6.99608
LeftFoot  -12.8843 0.154059 5.64901
LeftToes  8.91272e-011 -1.70619e-011 7.36378e-012
